<svg width="30" height="31" viewBox="0 0 30 31" fill="none" xmlns="http://www.w3.org/2000/svg">
<mask id="mask0_272_263" style="mask-type:luminance" maskUnits="userSpaceOnUse" x="1" y="2" width="28" height="28">
<path d="M15 28.2542C16.6418 28.2562 18.2679 27.9338 19.7847 27.3055C21.3015 26.6771 22.6793 25.7553 23.8388 24.5929C25.0012 23.4334 25.923 22.0557 26.5513 20.5389C27.1796 19.022 27.502 17.396 27.5 15.7542C27.502 14.1123 27.1796 12.4863 26.5513 10.9695C25.923 9.45263 25.0012 8.07489 23.8388 6.91541C22.6793 5.75301 21.3015 4.83117 19.7847 4.20286C18.2679 3.57454 16.6418 3.25214 15 3.25416C13.3582 3.25214 11.7322 3.57454 10.2153 4.20286C8.69848 4.83117 7.32074 5.75301 6.16126 6.91541C4.99886 8.07489 4.07702 9.45263 3.44871 10.9695C2.82039 12.4863 2.49798 14.1123 2.50001 15.7542C2.49798 17.396 2.82039 19.022 3.44871 20.5389C4.07702 22.0557 4.99886 23.4334 6.16126 24.5929C7.32074 25.7553 8.69848 26.6771 10.2153 27.3055C11.7322 27.9338 13.3582 28.2562 15 28.2542Z" fill="white" stroke="white" stroke-width="2" stroke-linejoin="round"/>
<path d="M10 15.7542L13.75 19.5042L21.25 12.0042" stroke="black" stroke-width="2" stroke-linecap="round" stroke-linejoin="round"/>
</mask>
<g mask="url(#mask0_272_263)">
<path d="M0 0.75415H30V30.7542H0V0.75415Z" fill="white"/>
</g>
</svg>
