<svg width="30" height="31" viewBox="0 0 30 31" fill="none" xmlns="http://www.w3.org/2000/svg">
<path d="M10.7337 11.0491L13.9812 4.50908C14.0758 4.31981 14.2212 4.16062 14.4011 4.04935C14.581 3.93809 14.7884 3.87915 15 3.87915C15.2116 3.87915 15.4189 3.93809 15.5989 4.04935C15.7788 4.16062 15.9242 4.31981 16.0187 4.50908L19.2662 11.0491L26.5262 12.1041C26.7357 12.1331 26.9327 12.2204 27.0948 12.3561C27.257 12.4917 27.3777 12.6702 27.4433 12.8712C27.5089 13.0722 27.5166 13.2876 27.4656 13.4928C27.4146 13.6979 27.307 13.8846 27.155 14.0316L21.9025 19.1191L23.1425 26.3066C23.3012 27.2291 22.3262 27.9316 21.4925 27.4966L15 24.1016L8.50624 27.4966C7.67374 27.9328 6.69874 27.2291 6.85749 26.3053L8.09749 19.1178L2.84499 14.0303C2.69373 13.8833 2.58674 13.6968 2.5362 13.492C2.48565 13.2872 2.49358 13.0723 2.55908 12.8718C2.62458 12.6712 2.74501 12.4931 2.9067 12.3576C3.06839 12.2221 3.26485 12.1347 3.47374 12.1053L10.7337 11.0491Z" stroke="white" stroke-width="1.5" stroke-linecap="round" stroke-linejoin="round"/>
</svg>
