<svg width="51" height="50" viewBox="0 0 51 50" fill="none" xmlns="http://www.w3.org/2000/svg">
<path d="M18.3897 17.1583L23.8022 6.25835C23.9597 5.9429 24.202 5.67758 24.5019 5.49213C24.8019 5.30669 25.1475 5.20847 25.5001 5.20847C25.8527 5.20847 26.1983 5.30669 26.4982 5.49213C26.7981 5.67758 27.0405 5.9429 27.198 6.25835L32.6105 17.1583L44.7105 18.9167C45.0595 18.9651 45.3879 19.1106 45.6582 19.3367C45.9284 19.5628 46.1297 19.8603 46.2389 20.1953C46.3482 20.5303 46.3611 20.8892 46.2761 21.2312C46.1912 21.5731 46.0118 21.8843 45.7584 22.1292L37.0043 30.6083L39.0709 42.5875C39.3355 44.125 37.7105 45.2958 36.3209 44.5708L25.5001 38.9125L14.6772 44.5708C13.2897 45.2979 11.6647 44.125 11.9293 42.5854L13.9959 30.6063L5.24176 22.1271C4.98964 21.882 4.81133 21.5712 4.7271 21.2298C4.64286 20.8885 4.65607 20.5304 4.76523 20.1961C4.87439 19.8619 5.07512 19.5651 5.34461 19.3392C5.61409 19.1134 5.94152 18.9678 6.28967 18.9188L18.3897 17.1583Z" stroke="white" stroke-width="1.5" stroke-linecap="round" stroke-linejoin="round"/>
</svg>
